<svg width="96" height="96" xmlns="http://www.w3.org/2000/svg" xmlns:xlink="http://www.w3.org/1999/xlink" xml:space="preserve" overflow="hidden"><g transform="translate(-32 -226)"><path d="M112 292C111.948 289.495 110.773 287.145 108.8 285.6 104.4 282 98.8 279.6 93.2 278 88.9217 276.69 84.4742 276.017 80 276 75.5307 276.077 71.0916 276.75 66.8 278 61.2073 279.632 55.9323 282.202 51.2 285.6 49.227 287.145 48.0522 289.495 48 292L48 308 112 308Z" stroke="#FFFFFF" fill="#DEB5EF"/><path d="M97.11 267.6C96.19 264 99.71 255 99.74 248.66 99.74 243.59 98.3 241.32 95.58 239.78 94.01 238.89 90.39 239.71 90.39 239.71 90.39 239.71 88.52 236.17 82.26 234.22 77.1161 232.82 71.6265 233.521 67 236.17 63.13 238.67 61.26 241.42 61.17 250.88 61.09 259.55 62.28 267.25 61.73 270.88 61.4764 272.889 60.7121 274.8 59.51 276.43 59.51 276.43 65.51 277.2 68.86 275.43 70.5458 274.299 72.1437 273.042 73.64 271.67 68.5078 269.276 64.7665 264.65 63.5 259.13 63.37 258.65 62.5 255.51 63.89 253.75 64.65 252.75 66.39 252.47 69.29 251.96 72.7614 251.503 76.1493 250.55 79.35 249.13 82.948 247.321 86.2848 245.033 89.27 242.33 89.6635 241.943 90.2966 241.947 90.6842 242.341 90.8315 242.49 90.928 242.682 90.96 242.89 91.1981 244.535 91.7698 246.114 92.64 247.53 93.0476 248.052 93.5496 248.493 94.12 248.83 94.7849 249.228 95.3576 249.764 95.8 250.4 96.5221 251.809 96.9314 253.358 97 254.94 96.9346 262.237 92.5989 268.819 85.92 271.76 87.18 272.87 88.83 274.24 90.65 275.56 93.65 277.73 100.9 274.73 100.9 274.73 100.9 274.73 98.56 273.33 97.11 267.6Z" stroke="#FFFFFF" fill="#DEB5EF"/><path d="M95 255C94.9466 253.791 94.6543 252.605 94.14 251.51 93.8471 251.096 93.4642 250.754 93.02 250.51 92.2552 250.049 91.5781 249.457 91.02 248.76 90.2154 247.602 89.6353 246.302 89.31 244.93 86.5181 247.274 83.4645 249.287 80.21 250.93 76.8317 252.433 73.2553 253.443 69.59 253.93 67.9 254.23 65.79 254.6 65.43 254.98 64.83 255.76 65.14 257.75 65.43 258.59 67.14 265.8 73.26 271 80 271 88 271 95 263.52 95 255Z" stroke="#FFFFFF" fill="#DEB5EF"/></g></svg>