<svg width="96" height="96" xmlns="http://www.w3.org/2000/svg" xmlns:xlink="http://www.w3.org/1999/xlink" xml:space="preserve" overflow="hidden"><g transform="translate(-224 -226)"><path d="M280 276.5C280 278.7 278.2 280.5 276 280.5L272 280.5C269.8 280.5 268 278.7 268 276.5L268 274.5 234 274.5 234 302.5C234 304.7 235.8 306.5 238 306.5L310 306.5C312.2 306.5 314 304.7 314 302.5L314 274.5 280 274.5 280 276.5Z" stroke="#FFFFFF" fill="#DEB5EF"/><path d="M310 250.5 290 250.5 290 244C290 240.1 286.9 237 283 237L265 237C261.1 237 258 240.1 258 244L258 250.5 238 250.5C235.8 250.5 234 252.3 234 254.5L234 270.5 268 270.5 268 268.5 280 268.5 280 270.5 314 270.5 314 254.5C314 252.3 312.2 250.5 310 250.5M264 250.5 264 244C264 243.4 264.4 243 265 243L283 243C283.6 243 284 243.4 284 244L284 250.5 264 250.5Z" stroke="#FFFFFF" fill="#DEB5EF"/></g></svg>