<svg width="96" height="96" xmlns="http://www.w3.org/2000/svg" xmlns:xlink="http://www.w3.org/1999/xlink" xml:space="preserve" overflow="hidden"><g transform="translate(-320 -226)"><path d="M384.42 298 351.42 298C347.278 298 343.92 301.358 343.92 305.5 343.92 309.642 347.278 313 351.42 313L384.42 313C388.562 313 391.92 309.642 391.92 305.5 391.92 301.358 388.562 298 384.42 298ZM353.42 308.5C351.763 308.5 350.42 307.157 350.42 305.5 350.42 303.843 351.763 302.5 353.42 302.5 355.077 302.5 356.42 303.843 356.42 305.5 356.42 307.157 355.077 308.5 353.42 308.5ZM367.92 308.5C366.263 308.5 364.92 307.157 364.92 305.5 364.92 303.843 366.263 302.5 367.92 302.5 369.577 302.5 370.92 303.843 370.92 305.5 370.92 307.157 369.577 308.5 367.92 308.5ZM382.42 308.5C380.763 308.5 379.42 307.157 379.42 305.5 379.42 303.843 380.763 302.5 382.42 302.5 384.077 302.5 385.42 303.843 385.42 305.5 385.42 307.157 384.077 308.5 382.42 308.5Z" stroke="#FFFFFF" fill="#DEB5EF"/><path d="M374.83 254C374.83 254.828 374.158 255.5 373.33 255.5 372.502 255.5 371.83 254.828 371.83 254 371.83 253.172 372.502 252.5 373.33 252.5 374.158 252.5 374.83 253.172 374.83 254Z" stroke="#FFFFFF" fill="#DEB5EF"/><path d="M376.61 244 370 244 370 239.45C371.913 238.345 372.569 235.899 371.464 233.986 370.359 232.073 367.913 231.417 366 232.522 364.087 233.626 363.431 236.073 364.536 237.986 364.887 238.594 365.392 239.099 366 239.45L366 244 359.39 244C356.968 244.005 355.005 245.968 355 248.39L355 259.61C355.005 262.032 356.968 263.995 359.39 264L376.61 264C379.032 263.995 380.995 262.032 381 259.61L381 248.39C380.995 245.968 379.032 244.005 376.61 244ZM363 257C361.343 257 360 255.657 360 254 360 252.343 361.343 251 363 251 364.657 251 366 252.343 366 254 366 255.657 364.657 257 363 257ZM373 257C371.343 257 370 255.657 370 254 370 252.343 371.343 251 373 251 374.657 251 376 252.343 376 254 376 255.657 374.657 257 373 257Z" stroke="#FFFFFF" fill="#DEB5EF"/><path d="M364.83 254C364.83 254.828 364.158 255.5 363.33 255.5 362.502 255.5 361.83 254.828 361.83 254 361.83 253.172 362.502 252.5 363.33 252.5 364.158 252.5 364.83 253.172 364.83 254Z" stroke="#FFFFFF" fill="#DEB5EF"/><path d="M394 284.82 394 276.49C394 274.01 391.99 272 389.51 272L384 272 384 267 352 267 352 273 344.49 273C344.219 273 344 272.781 344 272.51L344 264.22C347.438 263.205 349.401 259.595 348.386 256.158 348.114 255.236 347.641 254.386 347 253.67L344 256.33C344.42 256.786 344.658 257.38 344.67 258 344.663 259.381 343.537 260.494 342.156 260.486 340.776 260.479 339.663 259.354 339.67 257.973 339.673 257.376 339.89 256.801 340.28 256.35L337.28 253.72C334.923 256.428 335.208 260.534 337.915 262.89 338.528 263.424 339.235 263.837 340 264.11L340 272.51C340 274.99 342.01 277 344.49 277L352 277 352 295 384 295 384 276 389.51 276C389.781 276 390 276.219 390 276.49L390 284.82C386.584 285.925 384.711 289.59 385.816 293.005 386.093 293.86 386.544 294.648 387.14 295.32L390.14 292.66C389.726 292.206 389.498 291.614 389.5 291 389.501 289.619 390.621 288.501 392.002 288.502 393.383 288.503 394.501 289.624 394.5 291.004 394.5 291.61 394.279 292.195 393.88 292.65L396.88 295.28C399.246 292.588 398.982 288.487 396.289 286.121 395.623 285.535 394.844 285.093 394 284.82ZM380 281 377.22 281C377.123 281.017 377.031 281.055 376.95 281.11L373.89 284.24 371.56 278.72 367.21 287.72 364.16 276 361.81 281 357 281 357 279 360.54 279 364.7 270.15 367.78 281.93 371.69 273.93 374.57 280.75 375.57 279.75C376.009 279.306 376.596 279.039 377.22 279L380 279Z" stroke="#FFFFFF" fill="#DEB5EF"/></g></svg>