<svg width="96" height="96" xmlns="http://www.w3.org/2000/svg" xmlns:xlink="http://www.w3.org/1999/xlink" xml:space="preserve" overflow="hidden"><g transform="translate(-320 -130)"><path d="M384.42 202 351.42 202C347.278 202 343.92 205.358 343.92 209.5 343.92 213.642 347.278 217 351.42 217L384.42 217C388.562 217 391.92 213.642 391.92 209.5 391.92 205.358 388.562 202 384.42 202ZM353.42 212.5C351.763 212.5 350.42 211.157 350.42 209.5 350.42 207.843 351.763 206.5 353.42 206.5 355.077 206.5 356.42 207.843 356.42 209.5 356.42 211.157 355.077 212.5 353.42 212.5ZM367.92 212.5C366.263 212.5 364.92 211.157 364.92 209.5 364.92 207.843 366.263 206.5 367.92 206.5 369.577 206.5 370.92 207.843 370.92 209.5 370.92 211.157 369.577 212.5 367.92 212.5ZM382.42 212.5C380.763 212.5 379.42 211.157 379.42 209.5 379.42 207.843 380.763 206.5 382.42 206.5 384.077 206.5 385.42 207.843 385.42 209.5 385.42 211.157 384.077 212.5 382.42 212.5Z" stroke="#DEB5EF" fill="#FFFFFF"/><path d="M374.83 158C374.83 158.828 374.158 159.5 373.33 159.5 372.502 159.5 371.83 158.828 371.83 158 371.83 157.172 372.502 156.5 373.33 156.5 374.158 156.5 374.83 157.172 374.83 158Z" stroke="#DEB5EF" fill="#FFFFFF"/><path d="M376.61 148 370 148 370 143.45C371.913 142.345 372.569 139.899 371.464 137.986 370.359 136.073 367.913 135.417 366 136.522 364.087 137.626 363.431 140.073 364.536 141.986 364.887 142.594 365.392 143.099 366 143.45L366 148 359.39 148C356.968 148.005 355.005 149.968 355 152.39L355 163.61C355.005 166.032 356.968 167.995 359.39 168L376.61 168C379.032 167.995 380.995 166.032 381 163.61L381 152.39C380.995 149.968 379.032 148.005 376.61 148ZM363 161C361.343 161 360 159.657 360 158 360 156.343 361.343 155 363 155 364.657 155 366 156.343 366 158 366 159.657 364.657 161 363 161ZM373 161C371.343 161 370 159.657 370 158 370 156.343 371.343 155 373 155 374.657 155 376 156.343 376 158 376 159.657 374.657 161 373 161Z" stroke="#DEB5EF" fill="#FFFFFF"/><path d="M364.83 158C364.83 158.828 364.158 159.5 363.33 159.5 362.502 159.5 361.83 158.828 361.83 158 361.83 157.172 362.502 156.5 363.33 156.5 364.158 156.5 364.83 157.172 364.83 158Z" stroke="#DEB5EF" fill="#FFFFFF"/><path d="M394 188.82 394 180.49C394 178.01 391.99 176 389.51 176L384 176 384 171 352 171 352 177 344.49 177C344.219 177 344 176.781 344 176.51L344 168.22C347.438 167.205 349.401 163.595 348.386 160.158 348.114 159.236 347.641 158.386 347 157.67L344 160.33C344.42 160.786 344.658 161.38 344.67 162 344.663 163.381 343.537 164.494 342.156 164.486 340.776 164.479 339.663 163.354 339.67 161.973 339.673 161.376 339.89 160.801 340.28 160.35L337.28 157.72C334.923 160.428 335.208 164.534 337.915 166.89 338.528 167.424 339.235 167.837 340 168.11L340 176.51C340 178.99 342.01 181 344.49 181L352 181 352 199 384 199 384 180 389.51 180C389.781 180 390 180.219 390 180.49L390 188.82C386.584 189.925 384.711 193.59 385.816 197.005 386.093 197.86 386.544 198.648 387.14 199.32L390.14 196.66C389.726 196.206 389.498 195.614 389.5 195 389.501 193.619 390.621 192.501 392.002 192.502 393.383 192.503 394.501 193.624 394.5 195.004 394.5 195.61 394.279 196.195 393.88 196.65L396.88 199.28C399.246 196.588 398.982 192.487 396.289 190.121 395.623 189.535 394.844 189.093 394 188.82ZM380 185 377.22 185C377.123 185.017 377.031 185.055 376.95 185.11L373.89 188.24 371.56 182.72 367.21 191.72 364.16 180 361.81 185 357 185 357 183 360.54 183 364.7 174.15 367.78 185.93 371.69 177.93 374.57 184.75 375.57 183.75C376.009 183.306 376.596 183.039 377.22 183L380 183Z" stroke="#DEB5EF" fill="#FFFFFF"/></g></svg>