<svg width="96" height="96" xmlns="http://www.w3.org/2000/svg" xmlns:xlink="http://www.w3.org/1999/xlink" xml:space="preserve" overflow="hidden"><g transform="translate(-32 -130)"><path d="M112 196C111.948 193.495 110.773 191.145 108.8 189.6 104.4 186 98.8 183.6 93.2 182 88.9217 180.69 84.4742 180.016 80 180 75.5307 180.077 71.0916 180.75 66.8 182 61.2073 183.632 55.9323 186.202 51.2 189.6 49.227 191.145 48.0522 193.495 48 196L48 212 112 212Z" stroke="#DEB5EF" fill="#FFFFFF"/><path d="M97.11 171.6C96.19 168 99.71 159 99.74 152.66 99.74 147.59 98.3 145.32 95.58 143.78 94.01 142.89 90.39 143.71 90.39 143.71 90.39 143.71 88.52 140.17 82.26 138.22 77.1161 136.82 71.6265 137.521 67 140.17 63.13 142.67 61.26 145.42 61.17 154.88 61.09 163.55 62.28 171.25 61.73 174.88 61.4764 176.889 60.7121 178.8 59.51 180.43 59.51 180.43 65.51 181.2 68.86 179.43 70.5458 178.299 72.1437 177.042 73.64 175.67 68.5078 173.276 64.7665 168.65 63.5 163.13 63.37 162.65 62.5 159.51 63.89 157.75 64.65 156.75 66.39 156.47 69.29 155.96 72.7614 155.503 76.1493 154.55 79.35 153.13 82.948 151.321 86.2848 149.033 89.27 146.33 89.6635 145.943 90.2966 145.947 90.6842 146.341 90.8315 146.49 90.928 146.682 90.96 146.89 91.1981 148.535 91.7698 150.114 92.64 151.53 93.0476 152.052 93.5496 152.493 94.12 152.83 94.7849 153.228 95.3576 153.764 95.8 154.4 96.5221 155.809 96.9314 157.358 97 158.94 96.9346 166.237 92.5989 172.819 85.92 175.76 87.18 176.87 88.83 178.24 90.65 179.56 93.65 181.73 100.9 178.73 100.9 178.73 100.9 178.73 98.56 177.33 97.11 171.6Z" stroke="#DEB5EF" fill="#FFFFFF"/><path d="M95 159C94.9466 157.791 94.6543 156.605 94.14 155.51 93.8471 155.096 93.4642 154.754 93.02 154.51 92.2552 154.049 91.5781 153.457 91.02 152.76 90.2154 151.602 89.6353 150.302 89.31 148.93 86.5181 151.274 83.4645 153.287 80.21 154.93 76.8317 156.433 73.2553 157.443 69.59 157.93 67.9 158.23 65.79 158.6 65.43 158.98 64.83 159.76 65.14 161.75 65.43 162.59 67.14 169.8 73.26 175 80 175 88 175 95 167.52 95 159Z" stroke="#DEB5EF" fill="#FFFFFF"/></g></svg>