<svg width="96" height="96" xmlns="http://www.w3.org/2000/svg" xmlns:xlink="http://www.w3.org/1999/xlink" xml:space="preserve" overflow="hidden"><g transform="translate(-224 -130)"><path d="M280 180.5C280 182.7 278.2 184.5 276 184.5L272 184.5C269.8 184.5 268 182.7 268 180.5L268 178.5 234 178.5 234 206.5C234 208.7 235.8 210.5 238 210.5L310 210.5C312.2 210.5 314 208.7 314 206.5L314 178.5 280 178.5 280 180.5Z" stroke="#DEB5EF" fill="#FFFFFF"/><path d="M310 154.5 290 154.5 290 148C290 144.1 286.9 141 283 141L265 141C261.1 141 258 144.1 258 148L258 154.5 238 154.5C235.8 154.5 234 156.3 234 158.5L234 174.5 268 174.5 268 172.5 280 172.5 280 174.5 314 174.5 314 158.5C314 156.3 312.2 154.5 310 154.5M264 154.5 264 148C264 147.4 264.4 147 265 147L283 147C283.6 147 284 147.4 284 148L284 154.5 264 154.5Z" stroke="#DEB5EF" fill="#FFFFFF"/></g></svg>